<svg width="602" height="602" viewBox="0 0 602 602" fill="none" xmlns="http://www.w3.org/2000/svg">
<circle cx="301" cy="301" r="301" fill="white"/>
<path d="M545.282 394.977C545.282 406.837 440.293 442.448 310.781 442.448C181.27 442.448 76.2805 406.837 76.2805 394.977C76.2805 383.116 181.27 399.498 310.781 399.498C440.293 399.498 545.282 383.116 545.282 394.977Z" fill="#3F3D56"/>
<path opacity="0.2" d="M545.282 394.977C545.282 406.837 440.293 442.448 310.781 442.448C181.27 442.448 76.2805 406.837 76.2805 394.977C76.2805 383.116 181.27 399.498 310.781 399.498C440.293 399.498 545.282 383.116 545.282 394.977Z" fill="black"/>
<path d="M310.781 416.452C440.293 416.452 545.282 406.837 545.282 394.977C545.282 383.116 440.293 373.502 310.781 373.502C181.27 373.502 76.2805 383.116 76.2805 394.977C76.2805 406.837 181.27 416.452 310.781 416.452Z" fill="#3F3D56"/>
<path opacity="0.2" d="M308.978 406.56C362.276 406.56 405.484 402.336 405.484 397.126C405.484 391.917 362.276 387.693 308.978 387.693C255.679 387.693 212.471 391.917 212.471 397.126C212.471 402.336 255.679 406.56 308.978 406.56Z" fill="black"/>
<path d="M496.921 180.405H391.504V181.103H139.415V219.308C139.415 317.514 215.533 397.126 309.428 397.126H309.429C339.145 397.139 368.344 389.001 394.114 373.524C419.884 358.047 441.323 335.774 456.292 308.925H496.921C513.216 308.925 528.843 302.154 540.365 290.103C551.887 278.052 558.36 261.708 558.36 244.665C558.36 227.622 551.887 211.277 540.365 199.226C528.843 187.175 513.216 180.405 496.921 180.405ZM496.921 289.115H465.834C474.84 267.049 479.47 243.301 479.442 219.308V200.215H496.921C508.192 200.215 519.002 204.898 526.972 213.234C534.942 221.57 539.42 232.876 539.42 244.665C539.42 256.454 534.942 267.76 526.972 276.096C519.002 284.432 508.192 289.115 496.921 289.115V289.115Z" fill="#3F3D56"/>
<path d="M155.199 197.611V219.308C155.199 308.255 224.386 380.618 309.429 380.618C394.471 380.618 463.658 308.255 463.658 219.308V197.611H155.199Z" fill="#E74C3C"/>
<path d="M269.102 351.062L233.793 313.002C230.23 309.161 228.272 303.997 228.349 298.645C228.426 293.294 230.532 288.194 234.205 284.467L287.607 230.272C288.88 228.98 290.383 227.961 292.029 227.273L303.629 222.425C306.131 221.379 308.874 221.135 311.509 221.723C314.144 222.311 316.552 223.704 318.429 225.727L355.3 265.472C357.119 267.432 358.36 269.899 358.873 272.578C359.386 275.256 359.151 278.033 358.195 280.575L354.293 290.954C353.584 292.839 352.499 294.544 351.109 295.954L296.384 351.492C292.712 355.218 287.774 357.267 282.658 357.186C277.541 357.106 272.665 354.903 269.102 351.062Z" fill="#E6E6E6"/>
<path d="M340.686 258.968L323.533 240.478L320.882 243.169L338.035 261.659L340.686 258.968Z" fill="#3F3D56"/>
<path d="M332.458 252.043C335.581 244.296 344.885 242.627 351.804 241.091C359.16 239.458 367.539 236.618 370.595 228.616C371.254 226.978 371.509 225.193 371.337 223.425C371.164 221.657 370.569 219.963 369.607 218.498C367.809 215.8 364.781 213.605 361.508 213.912C354.657 214.553 353.437 223.016 356.054 228.356C359.587 235.565 368.659 236.193 375.448 236.371C382.006 236.542 389.044 236.279 395.037 233.18C397.86 231.743 400.22 229.474 401.825 226.651C403.429 223.829 404.21 220.577 404.069 217.297C403.859 210.375 400.938 203.918 399.195 197.34C397.52 191.018 396.993 184.008 401.453 178.751C405.776 173.656 412.589 171.645 418.801 170.617C420.396 170.353 422.001 170.173 423.611 170.038C425.335 169.893 425.349 167.062 423.611 167.208C412.093 168.177 396.999 172.327 395.344 186.553C394.588 193.055 396.937 199.471 398.833 205.541C400.594 211.184 402.655 217.683 400.401 223.503C398.035 229.613 391.909 232.099 386.105 233.031C382.976 233.483 379.817 233.662 376.659 233.566C373.001 233.666 369.346 233.282 365.779 232.423C362.724 231.546 359.779 229.868 358.331 226.802C357.266 224.549 356.926 221.51 358.119 219.234C358.432 218.653 358.854 218.144 359.361 217.739C359.868 217.334 360.448 217.042 361.067 216.881C361.686 216.719 362.329 216.691 362.959 216.799C363.588 216.907 364.19 217.148 364.727 217.508C366.034 218.271 367.102 219.414 367.8 220.799C368.499 222.184 368.798 223.751 368.663 225.311C367.673 233.328 358.91 236.547 352.495 238.043C345.429 239.69 337.457 240.897 332.41 246.945C331.337 248.239 330.472 249.707 329.849 251.291C329.756 251.653 329.803 252.038 329.98 252.364C330.157 252.69 330.449 252.93 330.794 253.031C331.14 253.122 331.505 253.07 331.815 252.886C332.125 252.702 332.355 252.4 332.458 252.043V252.043Z" fill="#3F3D56"/>
<path d="M223.295 240.533C228.774 240.533 233.216 235.887 233.216 230.156C233.216 224.425 228.774 219.78 223.295 219.78C217.815 219.78 213.373 224.425 213.373 230.156C213.373 235.887 217.815 240.533 223.295 240.533Z" fill="#E6E6E6"/>
<path d="M405.484 279.21C410.963 279.21 415.405 274.564 415.405 268.833C415.405 263.102 410.963 258.456 405.484 258.456C400.004 258.456 395.562 263.102 395.562 268.833C395.562 274.564 400.004 279.21 405.484 279.21Z" fill="#E6E6E6"/>
<path d="M355.878 331.093C359.863 331.093 363.093 327.714 363.093 323.546C363.093 319.378 359.863 316 355.878 316C351.893 316 348.662 319.378 348.662 323.546C348.662 327.714 351.893 331.093 355.878 331.093Z" fill="#E6E6E6"/>
<path d="M98.6657 391.688C128.13 398.562 160.646 393.483 160.646 393.483C160.646 393.483 145.392 377.258 115.928 370.383C86.4643 363.508 53.9476 368.588 53.9476 368.588C53.9476 368.588 69.2017 384.813 98.6657 391.688Z" fill="#E6E6E6"/>
<path d="M101.572 403.281C133.65 404.249 160.87 393.436 160.87 393.436C142.883 385.292 123.592 380.763 104.003 380.086C71.9247 379.118 44.7048 389.93 44.7048 389.93C62.6914 398.074 81.9831 402.603 101.572 403.281V403.281Z" fill="#E74C3C"/>
<path d="M103.85 380.125C126.767 392.209 160.516 393.719 160.516 393.719C160.516 393.719 157.11 375.638 134.194 363.554C111.277 351.471 77.5281 349.96 77.5281 349.96C77.5281 349.96 80.9339 368.041 103.85 380.125Z" fill="#E74C3C"/>
<path opacity="0.3" d="M154.748 198.083V219.78C154.748 308.727 223.935 381.09 308.978 381.09C394.02 381.09 463.207 308.727 463.207 219.78V198.083H154.748Z" fill="#E74C3C"/>
<path d="M447.32 196.552L431.78 204.75C430.295 205.604 428.546 205.806 426.918 205.314C425.29 204.821 423.915 203.673 423.095 202.121L412.401 179.949C412.146 179.418 411.999 178.837 411.971 178.243L411.767 174.033C411.743 173.09 411.979 172.159 412.448 171.354C412.916 170.548 413.598 169.901 414.41 169.49L430.637 160.929C431.413 160.504 432.286 160.314 433.159 160.38C434.032 160.446 434.87 160.766 435.578 161.304L438.323 163.486C438.818 163.878 439.222 164.383 439.502 164.962L450.46 187.683C451.166 189.295 451.231 191.134 450.643 192.796C450.054 194.459 448.859 195.809 447.32 196.552V196.552Z" fill="#E6E6E6"/>
<path d="M427.036 165.131L419.486 169.114L420.017 170.214L427.567 166.232L427.036 165.131Z" fill="#3F3D56"/>
<path d="M434.942 169.137L418.195 177.872L420.61 182.937L437.357 174.202L434.942 169.137Z" fill="#E74C3C"/>
<path d="M438.549 175.741L421.803 184.476L424.218 189.541L440.964 180.805L438.549 175.741Z" fill="#E74C3C"/>
<path d="M442.157 183.287L425.411 192.022L427.826 197.087L444.572 188.352L442.157 183.287Z" fill="#E74C3C"/>
</svg>
